<svg width="100%" viewBox="270 40 140 210" xmlns="http://www.w3.org/2000/svg">

  <!-- Outer aura -->
  <ellipse cx="340" cy="155" rx="72" ry="78" fill="#FF6B00" opacity="0.12" style="fill:rgb(255, 107, 0);stroke:none;color:rgb(255, 255, 255);stroke-width:1px;stroke-linecap:butt;stroke-linejoin:miter;opacity:0.12;font-family:&quot;Anthropic Sans&quot;, -apple-system, BlinkMacSystemFont, &quot;Segoe UI&quot;, sans-serif;font-size:16px;font-weight:400;text-anchor:start;dominant-baseline:auto"/>
  <ellipse cx="340" cy="160" rx="50" ry="56" fill="#FF6B00" opacity="0.18" style="fill:rgb(255, 107, 0);stroke:none;color:rgb(255, 255, 255);stroke-width:1px;stroke-linecap:butt;stroke-linejoin:miter;opacity:0.18;font-family:&quot;Anthropic Sans&quot;, -apple-system, BlinkMacSystemFont, &quot;Segoe UI&quot;, sans-serif;font-size:16px;font-weight:400;text-anchor:start;dominant-baseline:auto"/>

  <!-- Main flame -->
  <path d="M340 60&#10;    C340 60 372 95 368 128&#10;    C365 148 382 142 379 124&#10;    C400 152 392 185 376 200&#10;    C368 208 358 216 340 220&#10;    C322 216 312 208 304 200&#10;    C288 185 280 152 301 124&#10;    C298 142 315 148 312 128&#10;    C308 95 340 60 340 60Z" fill="#FF6B00" style="fill:rgb(255, 107, 0);stroke:none;color:rgb(255, 255, 255);stroke-width:1px;stroke-linecap:butt;stroke-linejoin:miter;opacity:1;font-family:&quot;Anthropic Sans&quot;, -apple-system, BlinkMacSystemFont, &quot;Segoe UI&quot;, sans-serif;font-size:16px;font-weight:400;text-anchor:start;dominant-baseline:auto"/>

  <!-- Inner flame -->
  <path d="M340 92&#10;    C340 92 360 116 357 138&#10;    C354 153 340 161 340 161&#10;    C340 161 326 153 323 138&#10;    C320 116 340 92 340 92Z" fill="#FFD600" style="fill:rgb(255, 214, 0);stroke:none;color:rgb(255, 255, 255);stroke-width:1px;stroke-linecap:butt;stroke-linejoin:miter;opacity:1;font-family:&quot;Anthropic Sans&quot;, -apple-system, BlinkMacSystemFont, &quot;Segoe UI&quot;, sans-serif;font-size:16px;font-weight:400;text-anchor:start;dominant-baseline:auto"/>

  <!-- Sparks -->
  <circle cx="340" cy="50" r="6" fill="#FFD600" opacity="0.9" style="fill:rgb(255, 214, 0);stroke:none;color:rgb(255, 255, 255);stroke-width:1px;stroke-linecap:butt;stroke-linejoin:miter;opacity:0.9;font-family:&quot;Anthropic Sans&quot;, -apple-system, BlinkMacSystemFont, &quot;Segoe UI&quot;, sans-serif;font-size:16px;font-weight:400;text-anchor:start;dominant-baseline:auto"/>
  <circle cx="306" cy="72" r="4.5" fill="#FF6B00" opacity="0.7" style="fill:rgb(255, 107, 0);stroke:none;color:rgb(255, 255, 255);stroke-width:1px;stroke-linecap:butt;stroke-linejoin:miter;opacity:0.7;font-family:&quot;Anthropic Sans&quot;, -apple-system, BlinkMacSystemFont, &quot;Segoe UI&quot;, sans-serif;font-size:16px;font-weight:400;text-anchor:start;dominant-baseline:auto"/>
  <circle cx="292" cy="94" r="3" fill="#FFD600" opacity="0.5" style="fill:rgb(255, 214, 0);stroke:none;color:rgb(255, 255, 255);stroke-width:1px;stroke-linecap:butt;stroke-linejoin:miter;opacity:0.5;font-family:&quot;Anthropic Sans&quot;, -apple-system, BlinkMacSystemFont, &quot;Segoe UI&quot;, sans-serif;font-size:16px;font-weight:400;text-anchor:start;dominant-baseline:auto"/>
  <circle cx="374" cy="72" r="4.5" fill="#FF6B00" opacity="0.7" style="fill:rgb(255, 107, 0);stroke:none;color:rgb(255, 255, 255);stroke-width:1px;stroke-linecap:butt;stroke-linejoin:miter;opacity:0.7;font-family:&quot;Anthropic Sans&quot;, -apple-system, BlinkMacSystemFont, &quot;Segoe UI&quot;, sans-serif;font-size:16px;font-weight:400;text-anchor:start;dominant-baseline:auto"/>
  <circle cx="388" cy="96" r="3" fill="#FFD600" opacity="0.5" style="fill:rgb(255, 214, 0);stroke:none;color:rgb(255, 255, 255);stroke-width:1px;stroke-linecap:butt;stroke-linejoin:miter;opacity:0.5;font-family:&quot;Anthropic Sans&quot;, -apple-system, BlinkMacSystemFont, &quot;Segoe UI&quot;, sans-serif;font-size:16px;font-weight:400;text-anchor:start;dominant-baseline:auto"/>
  <circle cx="340" cy="232" r="7" fill="#FF3D6B" opacity="0.55" style="fill:rgb(255, 61, 107);stroke:none;color:rgb(255, 255, 255);stroke-width:1px;stroke-linecap:butt;stroke-linejoin:miter;opacity:0.55;font-family:&quot;Anthropic Sans&quot;, -apple-system, BlinkMacSystemFont, &quot;Segoe UI&quot;, sans-serif;font-size:16px;font-weight:400;text-anchor:start;dominant-baseline:auto"/>

</svg>